<svg width="20" height="20" viewBox="0 0 20 20" fill="none" xmlns="http://www.w3.org/2000/svg">
<path d="M8.5 0C7.94772 0 7.5 0.447715 7.5 1V6.5C7.5 7.05228 7.05228 7.5 6.5 7.5H1C0.447715 7.5 0 7.94772 0 8.5V11.5C0 12.0523 0.447715 12.5 1 12.5H6.5C7.05228 12.5 7.5 12.9477 7.5 13.5V19C7.5 19.5523 7.94772 20 8.5 20H11.5C12.0523 20 12.5 19.5523 12.5 19V13.5C12.5 12.9477 12.9477 12.5 13.5 12.5H19C19.5523 12.5 20 12.0523 20 11.5V8.5C20 7.94772 19.5523 7.5 19 7.5H13.5C12.9477 7.5 12.5 7.05228 12.5 6.5V1C12.5 0.447715 12.0523 0 11.5 0H8.5Z" fill="#282828"/>
</svg>
