<svg width="20" height="20" viewBox="0 0 20 20" fill="none" xmlns="http://www.w3.org/2000/svg">
<path d="M4.31325 0.678823C3.93834 0.303919 3.3305 0.303919 2.9556 0.678822L0.678823 2.9556C0.303919 3.3305 0.303919 3.93834 0.678822 4.31324L1.85588 5.4903L5.77649 9.47699C6.14605 9.85278 6.14353 10.4562 5.77084 10.8289L1.85588 14.7439L0.700599 15.851C0.314893 16.2207 0.305139 16.8341 0.678897 17.2158L2.95567 19.541C3.32937 19.9227 3.94273 19.9259 4.32043 19.5482L5.4903 18.3783L9.47124 14.3974C9.84836 14.0203 10.4606 14.0228 10.8345 14.4031L14.7439 18.3783L15.8439 19.5262C16.2163 19.9147 16.8353 19.9213 17.2159 19.5408L19.5408 17.2159C19.9213 16.8353 19.9147 16.2163 19.5262 15.8439L18.3783 14.7439L14.4031 10.8345C14.0228 10.4606 14.0203 9.84836 14.3974 9.47124L18.3783 5.4903L19.5482 4.32043C19.9259 3.94273 19.9227 3.32938 19.541 2.95568L17.2158 0.678898C16.8341 0.30514 16.2207 0.314892 15.851 0.700598L14.7439 1.85588L10.8289 5.77084C10.4562 6.14353 9.85278 6.14605 9.47699 5.77649L5.4903 1.85588L4.31325 0.678823Z" fill="black"/>
</svg>
