<svg width="20" height="20" viewBox="0 0 20 20" fill="none" xmlns="http://www.w3.org/2000/svg">
<path d="M4.29946 0.707107C3.90894 0.316583 3.27577 0.316582 2.88525 0.707107L0.707108 2.88525C0.316583 3.27577 0.316582 3.90894 0.707107 4.29946L1.8344 5.42675L5.67409 9.33116C6.05905 9.72261 6.05642 10.3512 5.6682 10.7394L1.8344 14.5732L0.729789 15.6318C0.328013 16.0169 0.317853 16.6558 0.707185 17.0534L2.88533 19.2779C3.2746 19.6755 3.91351 19.6788 4.30695 19.2854L5.42675 18.1656L9.32518 14.2672C9.71801 13.8743 10.3557 13.877 10.7453 14.2731L14.5732 18.1656L15.6244 19.2625C16.0123 19.6672 16.6571 19.6741 17.0535 19.2777L19.2777 17.0535C19.6741 16.6571 19.6672 16.0123 19.2625 15.6244L18.1656 14.5732L14.2731 10.7453C13.877 10.3557 13.8743 9.71801 14.2672 9.32518L18.1656 5.42675L19.2854 4.30695C19.6788 3.91351 19.6755 3.2746 19.2779 2.88533L17.0534 0.707185C16.6558 0.317853 16.0169 0.328013 15.6318 0.72979L14.5732 1.8344L10.7394 5.6682C10.3512 6.05642 9.72261 6.05905 9.33116 5.67409L5.42675 1.8344L4.29946 0.707107Z" fill="#282828"/>
</svg>
