<svg width="20" height="20" viewBox="0 0 20 20" fill="none" xmlns="http://www.w3.org/2000/svg">
<path d="M15.7071 0.707106C15.3166 0.316582 14.6834 0.316583 14.2929 0.707107L13.2071 1.79289C12.8166 2.18342 12.8166 2.81658 13.2071 3.20711L16.7929 6.79289C17.1834 7.18342 17.8166 7.18342 18.2071 6.79289L19.2929 5.70711C19.6834 5.31658 19.6834 4.68342 19.2929 4.29289L15.7071 0.707106ZM10.7071 5.70711C10.3166 5.31658 9.68342 5.31658 9.29289 5.70711L0.292892 14.7071C0.105356 14.8946 0 15.149 0 15.4142V19C0 19.5523 0.447715 20 1 20H4.58579C4.851 20 5.10536 19.8946 5.29289 19.7071L14.2929 10.7071C14.6834 10.3166 14.6834 9.68342 14.2929 9.29289L10.7071 5.70711Z" fill="#282828"/>
</svg>
