<svg width="15" height="15" viewBox="0 0 15 15" fill="none" xmlns="http://www.w3.org/2000/svg">
<path d="M11.0244 0C10.6861 0.018797 10.3477 0.056391 10.0282 0.169173C9.52068 0.357143 9.03196 0.639098 8.61842 1.05263C8.49944 1.12806 8.39893 1.22927 8.32434 1.34878C8.24974 1.46829 8.20297 1.60303 8.18747 1.74306C8.17198 1.88308 8.18816 2.0248 8.23482 2.15772C8.28148 2.29065 8.35743 2.41138 8.45705 2.511C8.55666 2.61062 8.6774 2.68656 8.81032 2.73322C8.94325 2.77989 9.08497 2.79607 9.22499 2.78057C9.36501 2.76508 9.49976 2.7183 9.61927 2.64371C9.73878 2.56912 9.83999 2.46861 9.91541 2.34962C10.1222 2.14286 10.3665 2.03008 10.6297 1.93609C11.2876 1.71053 12.0959 1.80451 12.6222 2.34962C13.3553 3.08271 13.3553 4.30451 12.6222 5.05639L9.80263 7.87594C8.97556 8.70301 8.29887 8.7782 7.81015 8.7594C7.32143 8.7406 7.03947 8.51504 7.03947 8.51504C6.93086 8.45333 6.81116 8.41361 6.6872 8.39816C6.56324 8.38271 6.43745 8.39183 6.31701 8.42499C6.19657 8.45816 6.08385 8.51472 5.98527 8.59145C5.88669 8.66817 5.80419 8.76357 5.74248 8.87218C5.68077 8.98079 5.64106 9.1005 5.62561 9.22446C5.61016 9.34842 5.61927 9.47421 5.65244 9.59464C5.6856 9.71508 5.74216 9.82781 5.81889 9.92638C5.89562 10.025 5.99101 10.1075 6.09962 10.1692C6.09962 10.1692 6.73872 10.5827 7.67857 10.6391C8.61842 10.6955 9.93421 10.3383 11.0808 9.17293L13.9004 6.35338C15.3665 4.88722 15.3665 2.5188 13.9004 1.07143C13.3741 0.545113 12.7538 0.225564 12.0771 0.075188C11.7387 0 11.3628 0 11.0244 0.018797V0ZM7.26504 4.34211C6.32519 4.30451 5.0282 4.62406 3.91917 5.75188L1.09962 8.57143C-0.366541 10.0376 -0.366541 12.406 1.09962 13.8534C2.15226 14.906 3.65602 15.2068 4.9718 14.7368C5.47932 14.5489 5.96805 14.2669 6.38158 13.8534C6.50056 13.778 6.60107 13.6767 6.67567 13.5572C6.75026 13.4377 6.79703 13.303 6.81253 13.163C6.82802 13.0229 6.81184 12.8812 6.76518 12.7483C6.71852 12.6154 6.64257 12.4946 6.54295 12.395C6.44334 12.2954 6.3226 12.2195 6.18968 12.1728C6.05675 12.1261 5.91504 12.1099 5.77501 12.1254C5.63499 12.1409 5.50024 12.1877 5.38073 12.2623C5.26122 12.3369 5.16001 12.4374 5.08459 12.5564C4.87782 12.7632 4.63346 12.8759 4.3703 12.9699C3.71241 13.1955 2.90414 13.1015 2.37782 12.5564C1.64474 11.8233 1.64474 10.6015 2.37782 9.84962L5.19737 7.03008C5.94925 6.2782 6.60714 6.18421 7.13346 6.20301C7.65977 6.2218 8.01692 6.37218 8.01692 6.37218C8.12705 6.45478 8.25398 6.51217 8.38873 6.54031C8.52349 6.56845 8.66278 6.56664 8.79676 6.53501C8.93074 6.50338 9.05614 6.44271 9.16408 6.35728C9.27203 6.27184 9.35989 6.16374 9.42145 6.04061C9.48302 5.91749 9.51678 5.78234 9.52036 5.64472C9.52394 5.5071 9.49724 5.37038 9.44215 5.24422C9.38707 5.11806 9.30494 5.00554 9.20158 4.91462C9.09822 4.8237 8.97614 4.75659 8.84399 4.71805C8.84399 4.71805 8.20489 4.34211 7.26504 4.30451V4.34211Z" fill="#1C1C1C"/>
</svg>
