<svg width="107" height="107" viewBox="0 0 107 107" fill="none" xmlns="http://www.w3.org/2000/svg">
<path d="M43.702 46.6984C44.8149 45.166 46.5943 44.2591 48.4883 44.2591H91.3375C94.5897 44.2591 97.2319 46.8844 97.2526 50.1365L97.2726 53.2568L96.9564 57.5683L73.9271 68.0909L74.4999 66.4378C75.2516 64.2683 73.6404 62.0048 71.3443 62.0048H44.1925C39.3599 62.0048 36.5665 56.5239 39.4062 52.6137L43.702 46.6984Z" fill="#08FFBC"/>
<path d="M48.1501 4.86364H101.501C105.398 4.86364 107.713 9.21751 105.533 12.4478L98.969 22.175C98.0648 23.515 96.5539 24.3182 94.9374 24.3182H48.1501L48.6364 14.5909L48.1501 4.86364Z" fill="#08FFBC"/>
<path d="M97.2727 53.5C97.2727 63.1194 94.4203 72.5227 89.076 80.5209C83.7318 88.5191 76.1358 94.753 67.2487 98.4341C58.3616 102.115 48.5824 103.078 39.1479 101.202C29.7134 99.3252 21.0472 94.693 14.2453 87.8911C7.44336 81.0892 2.8112 72.423 0.934556 62.9885C-0.942089 53.554 0.0210733 43.7748 3.70224 34.8877C7.38342 26.0005 13.6173 18.4046 21.6155 13.0603C29.6137 7.71611 39.017 4.86364 48.6364 4.86364L49 14.5909L48.6364 24.3182C42.8648 24.3182 37.2228 26.0297 32.4238 29.2362C27.6249 32.4427 23.8846 37.0003 21.6759 42.3326C19.4672 47.6649 18.8893 53.5324 20.0153 59.1931C21.1413 64.8538 23.9206 70.0535 28.0017 74.1347C32.0829 78.2158 37.2826 80.9951 42.9433 82.1211C48.604 83.2471 54.4715 82.6692 59.8038 80.4605C65.1361 78.2518 69.6936 74.5115 72.9002 69.7125C76.1067 64.9136 77.8182 59.2716 77.8182 53.5H97.2727Z" fill="#08FFBC"/>
</svg>
