<svg width="22" height="20" viewBox="0 0 22 20" fill="none" xmlns="http://www.w3.org/2000/svg">
<path d="M19.2155 6.93128C17.294 6.93128 16.5084 5.59893 17.4638 3.9647C18.0159 3.01748 17.6868 1.81003 16.7207 1.26876L14.8841 0.238265C14.0454 -0.250961 12.9625 0.0404927 12.4636 0.862808L12.3468 1.06058C11.3913 2.6948 9.82009 2.6948 8.85401 1.06058L8.73723 0.862808C8.25949 0.0404927 7.17663 -0.250961 6.33794 0.238265L4.50132 1.26876C3.53523 1.81003 3.20613 3.02789 3.75817 3.97511C4.72426 5.59893 3.93865 6.93128 2.0171 6.93128C0.913003 6.93128 0 7.81605 0 8.909V10.741C0 11.8235 0.902387 12.7187 2.0171 12.7187C3.93865 12.7187 4.72426 14.0511 3.75817 15.6853C3.20613 16.6325 3.53523 17.84 4.50132 18.3812L6.33794 19.4117C7.17663 19.901 8.25949 19.6095 8.75846 18.7872L8.87524 18.5894C9.83071 16.9552 11.4019 16.9552 12.368 18.5894L12.4848 18.7872C12.9838 19.6095 14.0666 19.901 14.9053 19.4117L16.7419 18.3812C17.708 17.84 18.0371 16.6221 17.4851 15.6853C16.519 14.0511 17.3046 12.7187 19.2261 12.7187C20.3302 12.7187 21.2432 11.8339 21.2432 10.741V8.909C21.2326 7.82646 20.3302 6.93128 19.2155 6.93128ZM10.6163 13.2079C8.71599 13.2079 7.16601 11.6882 7.16601 9.825C7.16601 7.96178 8.71599 6.44206 10.6163 6.44206C12.5166 6.44206 14.0666 7.96178 14.0666 9.825C14.0666 11.6882 12.5166 13.2079 10.6163 13.2079Z" fill="#08FFBC"/>
</svg>
